<?xml version="1.0" encoding="UTF-8" standalone="no"?>
<!-- Created with Inkscape (http://www.inkscape.org/) -->

<svg
   xmlns:dc="http://purl.org/dc/elements/1.1/"
   xmlns:cc="http://creativecommons.org/ns#"
   xmlns:rdf="http://www.w3.org/1999/02/22-rdf-syntax-ns#"
   xmlns:svg="http://www.w3.org/2000/svg"
   xmlns="http://www.w3.org/2000/svg"
   xmlns:sodipodi="http://sodipodi.sourceforge.net/DTD/sodipodi-0.dtd"
   xmlns:inkscape="http://www.inkscape.org/namespaces/inkscape"
   width="300"
   height="300"
   viewBox="0 0 300 300"
   id="svg2"
   version="1.1"
   inkscape:version="0.91 r13725"
   sodipodi:docname="logo.svg"
   inkscape:export-filename="C:\Users\Chunjee\path4164-2.png"
   inkscape:export-xdpi="4.8000002"
   inkscape:export-ydpi="4.8000002">
  <defs
     id="defs4" />
  <sodipodi:namedview
     id="base"
     pagecolor="#ffffff"
     bordercolor="#666666"
     borderopacity="1.0"
     inkscape:pageopacity="0.0"
     inkscape:pageshadow="2"
     inkscape:zoom="1.3446442"
     inkscape:cx="169.2599"
     inkscape:cy="128.63752"
     inkscape:document-units="px"
     inkscape:current-layer="layer1"
     showgrid="false"
     units="px"
     inkscape:window-width="1304"
     inkscape:window-height="746"
     inkscape:window-x="54"
     inkscape:window-y="-8"
     inkscape:window-maximized="1"
     showguides="true"
     inkscape:guide-bbox="true">
    <sodipodi:guide
       position="150.71429,339.28571"
       orientation="1,0"
       id="guide4232" />
    <sodipodi:guide
       position="122.85714,148.57143"
       orientation="0,1"
       id="guide4237" />
  </sodipodi:namedview>
  <metadata
     id="metadata7">
    <rdf:RDF>
      <cc:Work
         rdf:about="">
        <dc:format>image/svg+xml</dc:format>
        <dc:type
           rdf:resource="http://purl.org/dc/dcmitype/StillImage" />
        <dc:title></dc:title>
      </cc:Work>
    </rdf:RDF>
  </metadata>
  <g
     inkscape:label="Layer 1"
     inkscape:groupmode="layer"
     id="layer1"
     transform="translate(0,-752.36216)">
    <g
       id="g4776"
       transform="matrix(0.39443109,0,0,0.39443109,302.82283,635.05655)">
      <path
         style="color:#000000;clip-rule:nonzero;display:inline;overflow:visible;visibility:visible;opacity:1;isolation:auto;mix-blend-mode:normal;color-interpolation:sRGB;color-interpolation-filters:linearRGB;solid-color:#000000;solid-opacity:1;fill:#000000;fill-opacity:1;fill-rule:nonzero;stroke:none;stroke-width:15.16632271;stroke-linecap:butt;stroke-linejoin:round;stroke-miterlimit:4;stroke-dasharray:none;stroke-dashoffset:0;stroke-opacity:1;color-rendering:auto;image-rendering:auto;shape-rendering:auto;text-rendering:auto;enable-background:accumulate"
         d="m -718.57227,-401.67188 a 345.57967,345.57967 0 0 0 -344.56443,325.339849 l 49.4336,0 11.1777,-26.964849 c 26.8346,-64.74292 90.27284,-97.1692 163.94337,-83.79687 16.41037,2.97849 54.59165,17.4717 85.08594,32.29687 l 55.3164,26.89258 19.88477,-17.47851 c 51.76162,-45.49786 122.54356,-57.19606 178.98828,-29.58008 33.26786,16.27658 55.8092,41.12918 67.85742,74.81641 l 8.51758,23.814449 49.22266,0 A 345.57967,345.57967 0 0 0 -718.57227,-401.67188 Z m -149.14062,271.35743 c -25.32523,-0.27304 -48.09393,9.14094 -63.4707,26.65429 -8.52401,9.708007 -15.49805,19.519627 -15.49805,21.802738 0,2.283671 23.65898,6.814041 52.57617,10.06836 28.91708,3.253624 70.08892,11.186232 91.49414,17.628906 21.40523,6.442787 40.42645,11.986064 42.26953,12.318359 1.84321,0.330928 8.30522,-7.410824 14.35938,-17.207031 6.05417,-9.795752 10.18542,-18.623953 9.18164,-19.619141 -8.46735,-8.394048 -99.90215,-47.982531 -116.60938,-50.488281 -4.83439,-0.72499 -9.61287,-1.10764 -14.30273,-1.1582 z m 302.05078,1.50976 c -27.87818,0 -62.56565,14.17106 -60.95117,24.90039 1.25247,8.323737 80.28256,25.319041 125.36523,26.960941 l 16.78516,0.611328 -10.16602,-16.292969 c -15.17579,-24.32116 -38.45931,-36.17969 -71.0332,-36.17969 z m -107.63086,79.087893 c -5.80365,-0.148718 -9.97583,4.026324 -16.72461,15.464844 -7.69823,13.047418 -8.91073,18.786504 -4.53906,21.488281 26.25223,16.2248967 75.23589,39.778651 93.80078,45.105469 27.1717,7.795856 61.51442,4.770948 81.38477,-7.167969 8.01609,-4.816374 18.94744,-15.7684595 24.29101,-24.3378905 l 9.71485,-15.5800785 -48.92188,-5.58789 c -41.39636,-4.726678 -84.14243,-13.812368 -134.67578,-28.626953 -1.56472,-0.458729 -2.99078,-0.723493 -4.33008,-0.757813 z m 248.80469,33.546875 -3.18555,14.498047 c -5.45908,24.854998 -31.56144,60.198632 -55.82422,75.585937 -55.31647,35.080438 -114.17885,31.333278 -201.02734,-12.794921 l -53.08594,-26.972657 -19.95898,18.03125 c -41.69277,37.666934 -105.60491,54.149466 -155.5293,40.109375 -40.30334,-11.334417 -63.89279,-31.710247 -83.7168,-72.310547 l -17.54689,-35.9375 -47.0195,-0.0078 a 345.57967,345.57967 0 0 0 342.81053,305.455078 345.57967,345.57967 0 0 0 343.03321,-305.65625 l -48.94922,0 z m -513.25586,1.128906 c -16.27896,0.179597 -10.04021,7.2946162 6.61133,26.259766 25.7996,29.383816 67.62947,34.226055 109.80273,12.710938 11.02081,-5.622527 20.03711,-11.361262 20.03711,-12.751954 0,-5.7874773 -30.7783,-13.5055479 -80.21484,-20.115234 -28.59544,-3.822882 -46.46895,-6.211273 -56.23633,-6.103516 z"
         transform="matrix(0.96537564,0,0,0.96537564,307.97708,737.01858)"
         id="path4164-2-3"
         inkscape:connector-curvature="0" />
      <circle
         r="363.84055"
         cy="682.86786"
         cx="-385.71432"
         id="path4164-4"
         style="color:#000000;clip-rule:nonzero;display:inline;overflow:visible;visibility:visible;opacity:1;isolation:auto;mix-blend-mode:normal;color-interpolation:sRGB;color-interpolation-filters:linearRGB;solid-color:#000000;solid-opacity:1;fill:none;fill-opacity:1;fill-rule:nonzero;stroke:#000000;stroke-width:19.61824036;stroke-linecap:butt;stroke-linejoin:round;stroke-miterlimit:4;stroke-dasharray:none;stroke-dashoffset:0;stroke-opacity:1;color-rendering:auto;image-rendering:auto;shape-rendering:auto;text-rendering:auto;enable-background:accumulate" />
    </g>
    <path
       style="fill:#000000"
       d="m -549.62418,1181.3241 c -8.03908,-2.2608 -12.74457,-6.3251 -16.69873,-14.4234 l -3.5,-7.1681 -122.75,-0.021 -122.74995,-0.021 0,-6 0,-6 122.81594,0 122.81598,0 2.22933,-5.3787 c 5.35253,-12.9139 18.00632,-19.3816 32.70095,-16.7143 3.27328,0.5941 10.88897,3.4848 16.97147,6.4419 l 11.03373,5.3641 3.96627,-3.4863 c 10.32458,-9.0752 24.44294,-11.4084 35.70164,-5.9 6.63575,3.2466 11.13203,8.2039 13.53522,14.9233 l 1.69886,4.75 122.76528,0 122.76529,0 0,6 0,6 -122.92055,0 -122.92055,0 -0.63522,2.8921 c -1.08889,4.9577 -6.29552,12.0072 -11.13507,15.0764 -11.03366,6.9973 -22.77447,6.2501 -40.09765,-2.5519 l -10.58885,-5.3802 -3.98105,3.5966 c -8.31621,7.5132 -21.06422,10.8008 -31.02234,8.0003 z m 18.30447,-13.635 c 2.19824,-1.1215 3.9968,-2.266 3.9968,-2.5434 0,-1.1544 -6.13919,-2.6938 -16,-4.0122 -15.21004,-2.0334 -15.21261,-2.0324 -9.8984,4.0202 5.14609,5.861 13.48954,6.8269 21.9016,2.5354 z m 60.23023,0.2484 c 1.59893,-0.9607 3.77921,-3.1453 4.84507,-4.8546 l 1.93793,-3.1079 -9.75822,-1.1143 c -8.2571,-0.9428 -16.78344,-2.7552 -26.86302,-5.7102 -1.66458,-0.488 -2.54299,0.1255 -4.19977,2.9336 -1.53553,2.6025 -1.77727,3.747 -0.90529,4.2859 5.23637,3.2363 15.00684,7.9347 18.70987,8.9972 5.41979,1.555 12.27,0.9517 16.23343,-1.4297 z m -45.20092,-16.7994 c 1.20759,-1.9539 2.03179,-3.715 1.83156,-3.9135 -1.68892,-1.6743 -19.92716,-9.5707 -23.25965,-10.0705 -6.17145,-0.9255 -11.87796,0.9452 -15.51307,5.0854 -1.70024,1.9364 -3.09135,3.8935 -3.09135,4.3489 0,0.4555 4.71922,1.3591 10.48715,2.0082 5.76793,0.649 13.98043,2.2315 18.25,3.5166 4.26957,1.2851 8.06365,2.3907 8.43129,2.457 0.36764,0.066 1.65647,-1.4781 2.86407,-3.4321 z m 50.13598,-6.6974 c -3.02702,-4.8512 -7.67116,-7.2166 -14.16849,-7.2166 -5.5607,0 -12.47961,2.8265 -12.15758,4.9666 0.24982,1.6603 16.0134,5.0506 25.00578,5.3781 l 3.3482,0.1219 z"
       id="path4147"
       inkscape:connector-curvature="0"
       sodipodi:nodetypes="cscccccccscscssscccccccssscscccscscssccscccscsccscsccsssccs" />
    <g
       id="g4781"
       transform="matrix(0.43794972,0,0,0.43794972,108.45271,601.18162)">
      <path
         id="path4164-2-1"
         d="m -1418.5704,345.32296 a 348.46878,348.46878 0 0 0 -205.6166,67.63671 c 39.1192,13.69183 87.6037,33.74409 129.4654,54.0958 l 120.612,58.6343 43.3562,-38.10835 c 36.5604,-32.1362 77.4745,-56.52542 120.2662,-72.78513 a 348.46878,348.46878 0 0 0 -208.0832,-69.47333 z m -302.8109,176.51057 a 348.46878,348.46878 0 0 0 -42.9948,131.05799 c 57.5824,8.47961 124.4465,22.11832 162.5676,33.59248 46.6711,14.04759 88.1448,26.13107 92.1634,26.85583 4.0188,0.72152 18.1081,-16.15708 31.3086,-37.5164 13.2003,-21.35841 22.2086,-40.60812 20.0199,-42.77788 -18.4618,-18.30196 -217.8265,-104.61909 -254.2543,-110.08249 -2.9487,-0.44219 -5.8827,-0.80365 -8.8104,-1.12953 z m 607.6526,3.92853 c -53.4851,7.23773 -107.3224,32.43639 -104.3398,52.25692 1.6713,11.10796 66.8834,29.28992 139.7554,42.55422 a 348.46878,348.46878 0 0 0 -35.4156,-94.81114 z m -206.1179,170.40886 c -12.6542,-0.32433 -21.7535,8.7786 -36.4682,33.7189 -16.7852,28.4483 -19.4265,40.95789 -9.8948,46.84869 57.2394,35.37638 164.0402,86.7368 204.5185,98.35114 11.451,3.28534 23.4895,5.67856 35.768,7.23124 a 348.46878,348.46878 0 0 0 50.5038,-130.08432 c -72.394,-11.40638 -148.4444,-29.04292 -234.9866,-54.41431 -3.4117,-1.00027 -6.5205,-1.57662 -9.4407,-1.65134 z m -434.2235,91.64838 a 348.46878,348.46878 0 0 0 41.9194,93.63642 c 22.7505,-4.55834 46.1128,-12.76579 69.5252,-24.70978 24.0293,-12.2593 43.6906,-24.77016 43.6906,-27.80243 0,-11.82867 -58.9684,-27.35584 -155.1352,-41.12421 z m 293.9847,91.2033 -43.5189,39.31476 c -30.7462,27.77732 -67.0373,50.26149 -105.8127,66.68332 a 348.46878,348.46878 0 0 0 190.8466,57.23812 348.46878,348.46878 0 0 0 187.598,-54.85022 c -35.3596,-12.54453 -72.9706,-29.04987 -113.3671,-49.57549 l -115.7459,-58.81049 z"
         style="color:#000000;clip-rule:nonzero;display:inline;overflow:visible;visibility:visible;opacity:1;isolation:auto;mix-blend-mode:normal;color-interpolation:sRGB;color-interpolation-filters:linearRGB;solid-color:#000000;solid-opacity:1;fill:#000000;fill-opacity:1;fill-rule:nonzero;stroke:none;stroke-width:15.16632271;stroke-linecap:butt;stroke-linejoin:round;stroke-miterlimit:4;stroke-dasharray:none;stroke-dashoffset:0;stroke-opacity:1;color-rendering:auto;image-rendering:auto;shape-rendering:auto;text-rendering:auto;enable-background:accumulate"
         inkscape:connector-curvature="0" />
      <circle
         r="380.04095"
         cy="693.79071"
         cx="-1418.5715"
         id="path4164-0"
         style="color:#000000;clip-rule:nonzero;display:inline;overflow:visible;visibility:visible;opacity:1;isolation:auto;mix-blend-mode:normal;color-interpolation:sRGB;color-interpolation-filters:linearRGB;solid-color:#000000;solid-opacity:1;fill:none;fill-opacity:1;fill-rule:nonzero;stroke:#000000;stroke-width:20.49176598;stroke-linecap:butt;stroke-linejoin:round;stroke-miterlimit:4;stroke-dasharray:none;stroke-dashoffset:0;stroke-opacity:1;color-rendering:auto;image-rendering:auto;shape-rendering:auto;text-rendering:auto;enable-background:accumulate" />
    </g>
  </g>
</svg>
